<?xml version="1.0" encoding="UTF-8" standalone="no"?>
<!-- Generator: Adobe Illustrator 16.0.0, SVG Export Plug-In . SVG Version: 6.00 Build 0)  -->

<svg
   xmlns:dc="http://purl.org/dc/elements/1.1/"
   xmlns:cc="http://creativecommons.org/ns#"
   xmlns:rdf="http://www.w3.org/1999/02/22-rdf-syntax-ns#"
   xmlns:svg="http://www.w3.org/2000/svg"
   xmlns="http://www.w3.org/2000/svg"
   xmlns:sodipodi="http://sodipodi.sourceforge.net/DTD/sodipodi-0.dtd"
   xmlns:inkscape="http://www.inkscape.org/namespaces/inkscape"
   version="1.1"
   id="Layer_1"
   x="0px"
   y="0px"
   width="30"
   height="25"
   viewBox="0 0 30 25"
   enable-background="new 0 0 512 512"
   xml:space="preserve"
   inkscape:version="0.91 r13725"
   sodipodi:docname="cloud-login.svg"><metadata
     id="metadata9"><rdf:RDF><cc:Work
         rdf:about=""><dc:format>image/svg+xml</dc:format><dc:type
           rdf:resource="http://purl.org/dc/dcmitype/StillImage" /><dc:title></dc:title></cc:Work></rdf:RDF></metadata><defs
     id="defs7"><filter
       inkscape:collect="always"
       style="color-interpolation-filters:sRGB"
       id="filter4174"
       x="-0.079823151"
       width="1.1596463"
       y="-0.10315097"
       height="1.2063019"><feGaussianBlur
         inkscape:collect="always"
         stdDeviation="0.81283876"
         id="feGaussianBlur4176" /></filter></defs><sodipodi:namedview
     pagecolor="#ffffff"
     bordercolor="#666666"
     borderopacity="1"
     objecttolerance="10"
     gridtolerance="10"
     guidetolerance="10"
     inkscape:pageopacity="0"
     inkscape:pageshadow="2"
     inkscape:window-width="1920"
     inkscape:window-height="1027"
     id="namedview5"
     showgrid="false"
     inkscape:zoom="20.85965"
     inkscape:cx="10.62776"
     inkscape:cy="16.910554"
     inkscape:window-x="0"
     inkscape:window-y="27"
     inkscape:window-maximized="1"
     inkscape:current-layer="Layer_1" /><path
     d="m 16.846567,3.8288193 c 2.531318,0 4.582348,2.1162465 4.582348,4.7280481 0,0.6217906 -0.123821,1.2127946 -0.33561,1.7576546 1.949597,0.544809 3.390509,2.364023 3.390509,4.546414 0,2.611802 -2.05103,4.728048 -4.582348,4.728048 l -12.9833195,0 c -2.1092151,0 -3.8186225,-1.76381 -3.8186225,-3.940043 0,-2.176231 1.7094557,-3.94004 3.8186225,-3.94004 0.117086,0 0.2267249,0.02464 0.3408619,0.03542 -0.2147956,-0.492501 -0.3408619,-1.035784 -0.3408619,-1.611425 0,-2.1762811 1.7094538,-3.9400397 3.8186255,-3.9400397 0.689165,0 1.326828,0.2031599 1.884681,0.5325467 0.693653,-1.702246 2.32325,-2.8965717 4.225114,-2.8965717 m 0,-1.5760166 c -1.954084,0 -3.748502,0.952702 -4.885163,2.5148796 -0.400478,-0.100084 -0.809215,-0.1508499 -1.224632,-0.1508499 -2.9475022,0 -5.3460742,2.4748376 -5.3460742,5.5160566 0,0.07697 0.00148,0.152394 0.00437,0.227795 -2.2084044,0.677193 -3.8231091,2.791912 -3.8231091,5.288272 0,3.041219 2.3985743,5.516059 5.3460711,5.516059 l 12.9833192,0 c 3.369649,0 6.109798,-2.827274 6.109798,-6.304066 0,-2.297833 -1.224632,-4.374086 -3.110078,-5.472964 0.03728,-0.27393 0.05519,-0.552542 0.05519,-0.8311025 0,-3.4752144 -2.740146,-6.3040653 -6.109796,-6.3040653 l 0,0 z"
     id="path3"
     inkscape:connector-curvature="0"
     style="opacity:0.12900002;filter:url(#filter4174)"
     transform="matrix(1.0690381,0,0,0.97122544,-0.06526374,-0.09453591)" /><path
     d="m 18.267896,3.5890629 c 2.706075,0 4.898705,2.0553529 4.898705,4.5920015 0,0.6038982 -0.132369,1.1778963 -0.35878,1.7070782 2.084194,0.5291324 3.624583,2.2959994 3.624583,4.4155924 0,2.536649 -2.192628,4.592001 -4.898704,4.592001 l -13.8796633,0 c -2.2548314,0 -4.0822537,-1.713057 -4.0822537,-3.82667 0,-2.113611 1.8274737,-3.826667 4.0822537,-3.826667 0.1251694,0 0.2423776,0.02393 0.3643944,0.0344 C 7.788806,10.79847 7.6540367,10.270819 7.6540367,9.7117418 c 0,-2.1136594 1.8274716,-3.8266671 4.0822563,-3.8266671 0.736743,0 1.418429,0.1973142 2.014796,0.5172232 0.741541,-1.6532646 2.483642,-2.8132244 4.516807,-2.8132244 m 0,-1.5306668 c -2.088991,0 -4.007291,0.9252884 -5.222425,2.4425144 -0.428127,-0.097204 -0.865083,-0.1465084 -1.309178,-0.1465084 -3.1509926,0 -5.7151576,2.4036247 -5.7151576,5.3573339 0,0.074756 0.0016,0.1480089 0.00471,0.2212399 -2.3608681,0.6577075 -4.0870494,2.7115765 -4.0870494,5.1361045 0,2.95371 2.5641671,5.357337 5.7151539,5.357337 l 13.879663,0 c 3.602283,0 6.531607,-2.745921 6.531607,-6.122669 0,-2.231714 -1.309178,-4.248224 -3.324792,-5.3154821 0.03985,-0.2660477 0.059,-0.5366428 0.059,-0.8071874 0,-3.3752172 -2.92932,-6.1226692 -6.531605,-6.1226692 l 0,0 z"
     id="path3-3"
     inkscape:connector-curvature="0"
     style="fill:#ffffff" /></svg>