<?xml version="1.0" encoding="UTF-8" standalone="no"?>
<svg
   xmlns:dc="http://purl.org/dc/elements/1.1/"
   xmlns:cc="http://creativecommons.org/ns#"
   xmlns:rdf="http://www.w3.org/1999/02/22-rdf-syntax-ns#"
   xmlns:svg="http://www.w3.org/2000/svg"
   xmlns="http://www.w3.org/2000/svg"
   xmlns:sodipodi="http://sodipodi.sourceforge.net/DTD/sodipodi-0.dtd"
   xmlns:inkscape="http://www.inkscape.org/namespaces/inkscape"
   width="36pt"
   height="36pt"
   viewBox="0 0 36 36"
   version="1.1"
   id="svg2"
   inkscape:version="0.48.4 r9939"
   sodipodi:docname="system-suspend-click.svg">
  <metadata
     id="metadata15">
    <rdf:RDF>
      <cc:Work
         rdf:about="">
        <dc:format>image/svg+xml</dc:format>
        <dc:type
           rdf:resource="http://purl.org/dc/dcmitype/StillImage" />
        <dc:title />
      </cc:Work>
    </rdf:RDF>
  </metadata>
  <defs
     id="defs13" />
  <sodipodi:namedview
     pagecolor="#ffffff"
     bordercolor="#666666"
     borderopacity="1"
     objecttolerance="10"
     gridtolerance="10"
     guidetolerance="10"
     inkscape:pageopacity="0"
     inkscape:pageshadow="2"
     inkscape:window-width="1280"
     inkscape:window-height="996"
     id="namedview11"
     showgrid="false"
     inkscape:zoom="14.833529"
     inkscape:cx="-4.1308632"
     inkscape:cy="20.234379"
     inkscape:window-x="0"
     inkscape:window-y="0"
     inkscape:window-maximized="1"
     inkscape:current-layer="svg2" />
  <g
     id="surface1"
     style="fill:none;fill-opacity:1;stroke:#ffffff;stroke-opacity:1">
    <path
       style="stroke:#ffffff;fill-rule:nonzero;fill:#9a7a10;fill-opacity:0.65677965;stroke-opacity:1"
       d="M 18 4.101562 L 18 4.101562 C 26.078125 4.101562 32.625 10.648438 32.625 18.726562 C 32.625 26.804688 26.078125 33.351562 18 33.351562 C 9.921875 33.351562 3.375 26.804688 3.375 18.726562 C 3.375 10.648438 9.921875 4.101562 18 4.101562 Z M 18 4.101562 "
       id="path5" />
  </g>
  <g
     id="surface1-2"
     transform="matrix(1.8033021,0,0,2.0537312,7.1872314,6.4819491)"
     style="fill:#ffffff;fill-opacity:1" />
  <path
     transform="matrix(0.73463588,0,0,0.7316726,1.1555829,1.4336812)"
     style="fill:#ffffff;fill-opacity:1;fill-rule:nonzero;stroke:none"
     d="m 36.324152,23.644068 c 0,7.16098 -5.741094,12.966101 -12.823093,12.966101 -7.081999,0 -12.823094,-5.805121 -12.823094,-12.966101 0,-7.16098 5.741095,-12.966102 12.823094,-12.966102 -14.4876776,4.010543 -4.508205,31.970385 12.823093,12.966102 z"
     id="path3864"
     inkscape:connector-curvature="0"
     sodipodi:nodetypes="csscc" />
</svg>
