<?xml version="1.0" encoding="UTF-8" standalone="no"?>
<svg
   xmlns:dc="http://purl.org/dc/elements/1.1/"
   xmlns:cc="http://creativecommons.org/ns#"
   xmlns:rdf="http://www.w3.org/1999/02/22-rdf-syntax-ns#"
   xmlns:svg="http://www.w3.org/2000/svg"
   xmlns="http://www.w3.org/2000/svg"
   xmlns:sodipodi="http://sodipodi.sourceforge.net/DTD/sodipodi-0.dtd"
   xmlns:inkscape="http://www.inkscape.org/namespaces/inkscape"
   width="36pt"
   height="36pt"
   viewBox="0 0 36 36"
   version="1.1"
   id="svg2"
   inkscape:version="0.48.4 r9939"
   sodipodi:docname="system-reboot.svg">
  <metadata
     id="metadata15">
    <rdf:RDF>
      <cc:Work
         rdf:about="">
        <dc:format>image/svg+xml</dc:format>
        <dc:type
           rdf:resource="http://purl.org/dc/dcmitype/StillImage" />
        <dc:title></dc:title>
      </cc:Work>
    </rdf:RDF>
  </metadata>
  <defs
     id="defs13">
    <linearGradient
       id="linearGradient2990">
      <stop
         style="stop-color:#9ec3e3;stop-opacity:1;"
         offset="0"
         id="stop2992" />
      <stop
         id="stop3002"
         offset="0.56841403"
         style="stop-color:#6697da;stop-opacity:1;" />
      <stop
         style="stop-color:#325f86;stop-opacity:1;"
         offset="1"
         id="stop2994" />
    </linearGradient>
  </defs>
  <sodipodi:namedview
     pagecolor="#ffffff"
     bordercolor="#666666"
     borderopacity="1"
     objecttolerance="10"
     gridtolerance="10"
     guidetolerance="10"
     inkscape:pageopacity="0"
     inkscape:pageshadow="2"
     inkscape:window-width="1366"
     inkscape:window-height="704"
     id="namedview11"
     showgrid="false"
     inkscape:zoom="7.4167645"
     inkscape:cx="0.28940203"
     inkscape:cy="19.980182"
     inkscape:window-x="0"
     inkscape:window-y="24"
     inkscape:window-maximized="1"
     inkscape:current-layer="svg2" />
  <g
     id="surface1"
     style="fill:none;stroke:#ffffff;stroke-opacity:1">
    <path
       style="stroke:#ffffff;fill-rule:nonzero;fill:#388db6;fill-opacity:1;stroke-opacity:1"
       d="M 18 4.101562 L 18 4.101562 C 26.078125 4.101562 32.625 10.648438 32.625 18.726562 C 32.625 26.804688 26.078125 33.351562 18 33.351562 C 9.921875 33.351562 3.375 26.804688 3.375 18.726562 C 3.375 10.648438 9.921875 4.101562 18 4.101562 Z M 18 4.101562 "
       id="path5" />
  </g>
  <g
     id="surface1-2"
     transform="matrix(1.8033021,0,0,1.8006893,7.2635026,8.0034421)"
     style="fill:#ffffff;fill-opacity:1">
    <path
       id="path3782"
       d="m 0.109375,5.03125 4.175781,0 -2.324218,-3.238281 z m 0,0"
       style="fill:#ffffff;fill-opacity:1;fill-rule:nonzero;stroke:none"
       inkscape:connector-curvature="0" />
    <path
       id="path3784"
       d="m 1.363281,4.945312 c -1.36718725,4.855469 2.84375,6.128907 6.582031,4.785157 L 6.691406,8.917969 C 3.285156,9.410156 1.796875,8.191406 2.898438,4.925781 z m 0,0"
       style="fill:#ffffff;fill-opacity:1;fill-rule:nonzero;stroke:none"
       inkscape:connector-curvature="0" />
    <path
       id="path3786"
       d="m 11.882812,6.546875 -4.378906,0 2.441406,2.96875 z m 0,0"
       style="fill:#ffffff;fill-opacity:1;fill-rule:nonzero;stroke:none"
       inkscape:connector-curvature="0" />
    <path
       id="path3788"
       d="m 10.523438,6.625 c 1.433593,-4.878906 -3.375,-5.5 -6.894532,-4.390625 l 1.3125,0.746094 c 3.175782,-0.414063 5.21875,0.425781 3.96875,3.660156 z m 0,0"
       style="fill:#ffffff;fill-opacity:1;fill-rule:nonzero;stroke:none"
       inkscape:connector-curvature="0" />
    <path
       id="path3790"
       d="M 10.539062,6.542969 8.953125,6.554688 10.777344,5.035156 c -0.01953,0.511719 -0.08594,0.992188 -0.238282,1.507813 z m 0,0"
       style="fill:#ffffff;fill-opacity:1;fill-rule:nonzero;stroke:none"
       inkscape:connector-curvature="0" />
    <path
       id="path3792"
       d="M 1.347656,5.03125 2.875,5.019531 1.097656,6.621094 c 0.019532,-0.523438 0.078125,-1.042969 0.25,-1.589844 z m 0,0"
       style="fill:#ffffff;fill-opacity:1;fill-rule:nonzero;stroke:none"
       inkscape:connector-curvature="0" />
  </g>
</svg>
